# xmcd
#
# Track frame offsets: 
#        150
#        29913
#        61279
#        84796
#        112428
#        149560
#        153160
#        188494
#        228080
#        266113
#        287809
#
# Disc length: 4116 seconds
#
# Revision: 0
# Processed by: cddbd v1.5.2PL0 Copyright (c) Steve Scherf et al.
# Submitted via: ExactAudioCopy v0.99pb5
#
DISCID=9d10120b
DTITLE=Emanuel Young With Howard Glazer and The El 34's - Live In Detroi
DTITLE=t
DYEAR=2008
DGENRE=Blues
TTITLE0=Lucky Lucy
TTITLE1=The Out Skirts Of Town
TTITLE2=I Should Have Quit You
TTITLE3=Give Me Back My Wig
TTITLE4=Oh No, My Baby Don't Want Me Anymore
TTITLE5=Back Door Man Dialog
TTITLE6=Back Door Man
TTITLE7=Tore Up Over You
TTITLE8=I'm In The Mood
TTITLE9=The Train
TTITLE10=Poor Boy
EXTD=
EXTT0=
EXTT1=
EXTT2=
EXTT3=
EXTT4=
EXTT5=
EXTT6=
EXTT7=
EXTT8=
EXTT9=
EXTT10=
PLAYORDER=
